<svg id="Calque_1" data-name="Calque 1" xmlns="http://www.w3.org/2000/svg" viewBox="0 0 732.9 164.18"><defs><style>.cls-1,.cls-3{font-size:110.43px;font-family:BebasNeue, Bebas Neue;}.cls-1{fill:#da1f26;}.cls-2,.cls-3{fill:#3a3a3a;}.cls-4{letter-spacing:0em;}.cls-5{fill:none;stroke:#3a3a3a;stroke-miterlimit:10;stroke-width:5px;}</style></defs><title>perfectkicks logo final</title><text class="cls-1" transform="translate(53.45 119.32)"><tspan xml:space="preserve">PERFECT       </tspan></text><path class="cls-2" d="M589.2,137.24a22.6,22.6,0,0,1-2.07-1.09c-1-.65-1.18-.86-2.06-1.44a17.85,17.85,0,0,1-3.05-2.07,3.14,3.14,0,0,1-.61-2.3,31.6,31.6,0,0,1,2.11-8.64,5.67,5.67,0,0,0,0-3.34c-.91-3.56-.24-7,.42-10.48.29-1.52.38-3.07.78-4.56.5-1.88,1.24-3.71,1.81-5.57a5.21,5.21,0,0,0-.57-4.43c-.61-1-1.32-1.89-2-2.83a6.9,6.9,0,0,1-1.3-4.13c0-1.74,0-3.49-.11-5.23a7,7,0,0,1,2-5.31c2.5-2.64,8.6-1.66,9.61,2.42.42-.36.84-.67,1.21-1a53.87,53.87,0,0,1,19.55-11.9,45.77,45.77,0,0,1,13.66-2.94,8.89,8.89,0,0,1,5.2,1.3,1.4,1.4,0,0,0,1.65.12,15.35,15.35,0,0,1,2.27-.81,2.65,2.65,0,0,1,3.82,1.86c1.25,4.53,2.41,9.09,3.64,13.63a1.9,1.9,0,0,0,.64,1,4.16,4.16,0,0,1,1.6,4.77,3.08,3.08,0,0,0,.9,4.07,8.6,8.6,0,0,1,2.15,4.82c1.11.1,2.24.14,3.34.33a4.48,4.48,0,0,1,3.35,2.05c.55.87,1.69,1.37,2.57,2l2.71,2.1c.21.16.39.42.62.47,1.57.34,3.16.64,4.74,1a6.45,6.45,0,0,1,.94.21l6.65,2.43a18.66,18.66,0,0,1,2.56.94c1,.56,1.94,1.29,2.9,1.94a3.19,3.19,0,0,0,.74.41c4.1,1.37,8.16,2.87,12.32,4a45.28,45.28,0,0,0,7.53,1.21,14.89,14.89,0,0,1,11.21,6.3c2.11,2.87,2.23,5.61,1.68,8.6s-2.89,4.51-5.35,5.82c-2,1.07-4.26,1.78-6.27,2.88-5.43,3-11.44,3.15-17.37,3.55-7.48.5-15,.9-22.48.94s-15.19-.47-22.78-.62-15.17-.08-22.75-.23q-12-.24-23.9-.76C591.21,138.67,591.08,138.27,589.2,137.24Zm-5-49.35a1.41,1.41,0,0,0,0,.52c.39.81.37,1.49,1,2,.81.65,3.1-.75,3.12-1.86a10.49,10.49,0,0,1,2.39-6.07,8.62,8.62,0,0,0,1.85-4.14,2.17,2.17,0,0,0-1.38-2.27,4.64,4.64,0,0,0-3.51-.42c-2.07.62-2.45,1.3-2.86,2.92a49.2,49.2,0,0,0-.68,7C584,86.34,584.28,87.34,584.17,87.9Z" transform="translate(-35.34 -20.33)"/><text class="cls-3" transform="translate(342.25 119.32)">KIC<tspan class="cls-4" x="109.32" y="0">K</tspan><tspan x="154.48" y="0">S</tspan></text><polyline class="cls-5" points="2.5 41.9 2.5 161.68 679.19 161.68"/><polyline class="cls-5" points="57.83 2.5 730.4 2.5 730.4 119.44"/></svg>